<svg width="676" height="391" viewBox="0 0 676 391" fill="none" xmlns="http://www.w3.org/2000/svg">
<g opacity="0.09">
<line y1="-0.5" x2="390.089" y2="-0.5" transform="matrix(0.866041 -0.499972 -0.866041 -0.499972 4.32642 197.53)" stroke="white"/>
<line y1="-0.5" x2="390.089" y2="-0.5" transform="matrix(-0.866041 -0.499972 -0.866041 0.499972 342.15 387.578)" stroke="white"/>
<line y1="-0.5" x2="390.089" y2="-0.5" transform="matrix(0.866041 -0.499972 -0.866041 -0.499972 27.8408 211.106)" stroke="white"/>
<line y1="-0.5" x2="390.089" y2="-0.5" transform="matrix(-0.866041 -0.499972 -0.866041 0.499972 365.664 374.003)" stroke="white"/>
<line y1="-0.5" x2="390.089" y2="-0.5" transform="matrix(0.866041 -0.499972 -0.866041 -0.499972 51.3552 224.68)" stroke="white"/>
<line y1="-0.5" x2="390.089" y2="-0.5" transform="matrix(-0.866041 -0.499972 -0.866041 0.499972 389.179 360.428)" stroke="white"/>
<line y1="-0.5" x2="390.089" y2="-0.5" transform="matrix(0.866041 -0.499972 -0.866041 -0.499972 74.8696 238.255)" stroke="white"/>
<line y1="-0.5" x2="390.089" y2="-0.5" transform="matrix(-0.866041 -0.499972 -0.866041 0.499972 412.693 346.852)" stroke="white"/>
<line y1="-0.5" x2="390.089" y2="-0.5" transform="matrix(0.866041 -0.499972 -0.866041 -0.499972 98.3838 251.83)" stroke="white"/>
<line y1="-0.5" x2="390.089" y2="-0.5" transform="matrix(-0.866041 -0.499972 -0.866041 0.499972 436.208 333.277)" stroke="white"/>
<line y1="-0.5" x2="390.089" y2="-0.5" transform="matrix(0.866041 -0.499972 -0.866041 -0.499972 121.898 265.406)" stroke="white"/>
<line y1="-0.5" x2="390.089" y2="-0.5" transform="matrix(-0.866041 -0.499972 -0.866041 0.499972 459.722 319.703)" stroke="white"/>
<line y1="-0.5" x2="390.089" y2="-0.5" transform="matrix(0.866041 -0.499972 -0.866041 -0.499972 145.413 278.98)" stroke="white"/>
<line y1="-0.5" x2="390.089" y2="-0.5" transform="matrix(-0.866041 -0.499972 -0.866041 0.499972 483.236 306.127)" stroke="white"/>
<line y1="-0.5" x2="390.089" y2="-0.5" transform="matrix(0.866041 -0.499972 -0.866041 -0.499972 168.927 292.556)" stroke="white"/>
<line y1="-0.5" x2="390.089" y2="-0.5" transform="matrix(-0.866041 -0.499972 -0.866041 0.499972 506.751 292.552)" stroke="white"/>
<line y1="-0.5" x2="390.089" y2="-0.5" transform="matrix(0.866041 -0.499972 -0.866041 -0.499972 192.432 306.127)" stroke="white"/>
<line y1="-0.5" x2="390.089" y2="-0.5" transform="matrix(-0.866041 -0.499972 -0.866041 0.499972 530.265 278.977)" stroke="white"/>
<line y1="-0.5" x2="390.089" y2="-0.5" transform="matrix(0.866041 -0.499972 -0.866041 -0.499972 215.946 319.703)" stroke="white"/>
<line y1="-0.5" x2="390.089" y2="-0.5" transform="matrix(-0.866041 -0.499972 -0.866041 0.499972 553.779 265.402)" stroke="white"/>
<line y1="-0.5" x2="390.089" y2="-0.5" transform="matrix(0.866041 -0.499972 -0.866041 -0.499972 239.461 333.277)" stroke="white"/>
<line y1="-0.5" x2="390.089" y2="-0.5" transform="matrix(-0.866041 -0.499972 -0.866041 0.499972 577.294 251.827)" stroke="white"/>
<path d="M263.066 346.905L600.899 151.871" stroke="white"/>
<line y1="-0.5" x2="390.089" y2="-0.5" transform="matrix(-0.866041 -0.499972 -0.866041 0.499972 600.808 238.252)" stroke="white"/>
<line y1="-0.5" x2="390.089" y2="-0.5" transform="matrix(0.866041 -0.499972 -0.866041 -0.499972 286.49 360.428)" stroke="white"/>
<line y1="-0.5" x2="390.089" y2="-0.5" transform="matrix(-0.866041 -0.499972 -0.866041 0.499972 624.323 224.677)" stroke="white"/>
<line y1="-0.5" x2="390.089" y2="-0.5" transform="matrix(0.866041 -0.499972 -0.866041 -0.499972 310.004 374.003)" stroke="white"/>
<line y1="-0.5" x2="390.089" y2="-0.5" transform="matrix(-0.866041 -0.499972 -0.866041 0.499972 647.837 211.102)" stroke="white"/>
<line y1="-0.5" x2="390.089" y2="-0.5" transform="matrix(0.866041 -0.499972 -0.866041 -0.499972 333.518 387.578)" stroke="white"/>
<line y1="-0.5" x2="390.089" y2="-0.5" transform="matrix(-0.866041 -0.499972 -0.866041 0.499972 671.351 197.527)" stroke="white"/>
</g>
</svg>
