<svg width="688" height="396" viewBox="0 0 688 396" fill="none" xmlns="http://www.w3.org/2000/svg">
<path d="M291.311 244.673L304.789 236.891L328.394 250.52L314.916 258.301L342.97 274.498L312.281 292.217L284.227 276.02L232.957 305.62L212.433 295.874L180.364 216.054L180.091 215.897L210.78 198.178L291.311 244.673ZM236.763 276.166L260.622 262.391L219.948 238.908L221.122 241.794L236.763 276.166Z" fill="#FFAB91"/>
<path d="M220.026 242.286V239.14L236.797 276.105L260.644 262.473V264.832L236.273 278.727L220.026 242.286Z" fill="#D84315"/>
<path fill-rule="evenodd" clip-rule="evenodd" d="M304.565 236.816L291.201 244.681L210.49 198.017L179.831 215.844L180.355 216.427L181.218 218.575L210.909 201.425L291.431 247.934L304.907 240.151L325.638 252.125L328.542 250.449L304.565 236.816ZM317.823 259.956L315.034 261.567L340.167 276.085L343.216 274.305L317.823 259.956Z" fill="#D84315"/>
<rect width="123.015" height="153.783" transform="matrix(0.865931 -0.500163 0.865931 0.500163 238.044 182.4)" fill="url(#paint0_linear_11805_1560)"/>
<rect width="45.3616" height="78.9791" transform="matrix(0.865931 -0.500163 0.865931 0.500163 305.601 204.911)" fill="url(#paint1_linear_11805_1560)"/>
<rect x="25.112" width="94.015" height="124.783" transform="matrix(0.865931 -0.500163 0.865931 0.500163 241.411 194.96)" stroke="#1565C0" stroke-width="29"/>
<rect x="25.112" width="94.015" height="124.783" transform="matrix(0.865931 -0.500163 0.865931 0.500163 241.411 194.96)" stroke="url(#paint2_linear_11805_1560)" stroke-width="29"/>
<path d="M314.888 261.686V258.278L318.556 260.376L314.888 261.686Z" fill="#D84315"/>
<path d="M530.914 165.554L428.174 105.526C430.693 109.016 430.213 110.07 430.499 112.479C429.959 116.18 428.319 119.956 425.579 123.807C422.85 127.52 418.965 131.203 413.923 134.856L386.195 118.655C390.526 115.878 393.825 112.331 396.832 108.35C399.716 104.297 401.154 100.794 402.105 96.7592C403.067 92.5873 403.609 88.6632 402.03 85.7325L427.904 73.0916L561 150.856L530.914 165.554Z" fill="#D84315"/>
<path d="M528.465 167.271L425.725 107.243C428.244 110.733 427.765 111.786 428.05 114.196C427.51 117.897 425.87 121.673 423.131 125.523C420.402 129.236 416.516 132.92 411.474 136.573L383.746 120.372C388.077 117.595 391.376 114.047 394.383 110.066C397.267 106.013 398.705 102.51 399.656 98.4756C400.618 94.3037 401.16 90.3796 399.581 87.4489L425.455 74.8081L558.551 152.572L528.465 167.271Z" fill="#FFAB91"/>
<defs>
<linearGradient id="paint0_linear_11805_1560" x1="87.6562" y1="157.724" x2="-12.2467" y2="9.87227" gradientUnits="userSpaceOnUse">
<stop stop-color="#3076C8"/>
<stop offset="0.992076" stop-color="#91CBFA"/>
</linearGradient>
<linearGradient id="paint1_linear_11805_1560" x1="29.105" y1="57.5475" x2="77.4603" y2="-6.10511" gradientUnits="userSpaceOnUse">
<stop stop-color="#2E75C7"/>
<stop offset="1" stop-color="#4283CC"/>
</linearGradient>
<linearGradient id="paint2_linear_11805_1560" x1="-18.1763" y1="-54.0834" x2="139.226" y2="327.906" gradientUnits="userSpaceOnUse">
<stop stop-color="white"/>
<stop offset="1" stop-color="white" stop-opacity="0"/>
</linearGradient>
</defs>
</svg>
