<svg width="34" height="34" viewBox="0 0 34 34" fill="none" xmlns="http://www.w3.org/2000/svg">
<path d="M26.8333 2.83333V31.1667C26.8333 31.9181 26.5348 32.6388 26.0035 33.1701C25.4721 33.7015 24.7514 34 24 34H9.83333C9.08189 34 8.36122 33.7015 7.82986 33.1701C7.29851 32.6388 7 31.9181 7 31.1667V2.83333C7 2.08189 7.29851 1.36122 7.82986 0.829864C8.36122 0.298511 9.08189 0 9.83333 0H24C24.7514 0 25.4721 0.298511 26.0035 0.829864C26.5348 1.36122 26.8333 2.08189 26.8333 2.83333ZM24 31.1667V2.83333H9.83333V31.1667H24Z" fill="#2196F3"/>
</svg>
